<?xml version="1.0" encoding="UTF-8" standalone="no"?>
<!-- Created with Inkscape (http://www.inkscape.org/) -->

<svg width="200" height="200" viewBox="0 0 52.916666 52.916666" version="1.1" id="svg1634" xmlns="http://www.w3.org/2000/svg" xmlns:svg="http://www.w3.org/2000/svg">
  <defs id="defs1631" />
  <g id="layer1">
    <g id="g1742" transform="translate(0.25738626)">
      <path id="ellipse1297" style="color:#000000;overflow:visible;fill:#4d4d4d;stroke-width:1.12849;stroke-linecap:square;stop-color:#000000" d="M 30.996781,19.64059 A 16.700071,8.3500357 0 0 0 14.296703,27.990633 16.700071,8.3500357 0 0 0 30.996781,36.340669 16.700071,8.3500357 0 0 0 47.696868,27.990633 16.700071,8.3500357 0 0 0 30.996781,19.64059 Z" />
      <path id="path1193" style="color:#000000;overflow:visible;fill:#1a1a1a;stroke-width:0.704499;stroke-linecap:square;stop-color:#000000" d="m 30.996781,26.024042 a 12.320461,6.1602306 0 0 0 -12.320524,6.160037 12.320461,6.1602306 0 0 0 0.470486,1.683561 16.700071,8.3500357 0 0 0 11.850038,2.473029 16.700071,8.3500357 0 0 0 11.84959,-2.472571 12.320461,6.1602306 0 0 0 0.470943,-1.684019 12.320461,6.1602306 0 0 0 -12.320533,-6.160037 z" />
      <path id="path1578" style="color:#000000;overflow:visible;fill:#4d4d4d;fill-opacity:0.52289;stroke-width:1.45293;stroke-linecap:square;stop-color:#000000" d="M 31.464511,15.460737 A 21.50126,10.75063 17.412896 0 0 7.7313965,19.284333 21.50126,10.75063 17.412896 0 0 25.030144,35.976668 21.50126,10.75063 17.412896 0 0 48.763268,32.153084 21.50126,10.75063 17.412896 0 0 31.464511,15.460737 Z" />
      <path id="path1598" style="color:#000000;overflow:visible;fill:#4d4d4d;fill-opacity:0.52289;stroke-width:1.49091;stroke-linecap:square;stop-color:#000000" d="M 25.948996,14.299837 A 22.063397,11.031699 2.6798186 0 0 3.3939397,24.287914 22.063397,11.031699 2.6798186 0 0 24.917439,36.339114 22.063397,11.031699 2.6798186 0 0 47.472513,26.351045 22.063397,11.031699 2.6798186 0 0 25.948996,14.299837 Z" />
    </g>
  </g>
</svg>
